<svg width="203" height="47" viewBox="0 0 203 47" fill="none" xmlns="http://www.w3.org/2000/svg">
<path d="M12.9 38C11.9333 38 11.25 37.8 10.85 37.4C10.45 37 10.25 36.3667 10.25 35.5V11.3H2.55C1.61667 11.3 0.983333 11.1167 0.65 10.75C0.316667 10.35 0.15 9.71667 0.15 8.85V6.5C0.15 5.63333 0.316667 5 0.65 4.6C0.983333 4.2 1.61667 4 2.55 4H28.1C29.0333 4 29.6667 4.2 30 4.6C30.3667 5 30.55 5.63333 30.55 6.5V8.85C30.55 9.71667 30.3667 10.35 30 10.75C29.6667 11.1167 29.0333 11.3 28.1 11.3H20.4V35.5C20.4 36.3667 20.2 37 19.8 37.4C19.4 37.8 18.7167 38 17.75 38H12.9ZM35.4629 38C34.4962 38 33.8129 37.8 33.4129 37.4C33.0462 37 32.8629 36.3667 32.8629 35.5V6.55C32.8629 5.68333 33.0629 5.05 33.4629 4.65C33.8629 4.21667 34.5296 4 35.4629 4H56.2129C57.1462 4 57.7796 4.2 58.1129 4.6C58.4462 4.96667 58.6129 5.6 58.6129 6.5V8.8C58.6129 9.7 58.4462 10.35 58.1129 10.75C57.7796 11.1167 57.1462 11.3 56.2129 11.3H42.9629V17.4H51.7129C52.6462 17.4 53.2796 17.6 53.6129 18C53.9796 18.3667 54.1629 19 54.1629 19.9V22.1C54.1629 23 53.9796 23.65 53.6129 24.05C53.2796 24.4167 52.6462 24.6 51.7129 24.6H42.9629V30.75H56.1629C57.0962 30.75 57.7296 30.95 58.0629 31.35C58.3962 31.7167 58.5629 32.35 58.5629 33.25V35.55C58.5629 36.4167 58.3962 37.05 58.0629 37.45C57.7296 37.8167 57.0962 38 56.1629 38H35.4629ZM64.0273 38C63.0607 38 62.3773 37.8 61.9773 37.4C61.6107 37 61.4273 36.3667 61.4273 35.5V6.55C61.4273 5.68333 61.6273 5.05 62.0273 4.65C62.4273 4.21667 63.094 4 64.0273 4H75.0273C80.7607 4 85.1107 5.38333 88.0773 8.15C91.0773 10.8833 92.5773 15.1667 92.5773 21C92.5773 26.7 91.0773 30.9667 88.0773 33.8C85.0773 36.6 80.7273 38 75.0273 38H64.0273ZM75.4773 30.75C77.8773 30.75 79.644 30.0333 80.7773 28.6C81.944 27.1333 82.5273 24.6 82.5273 21C82.5273 17.4 81.944 14.8833 80.7773 13.45C79.644 12.0167 77.8773 11.3 75.4773 11.3H71.5273V30.75H75.4773Z" fill="#EF8354"/>
<path d="M108.9 38.75C106.367 38.75 103.933 38.4167 101.6 37.75C99.2667 37.0833 97.3667 36.2333 95.9 35.2V6.55C95.9 5.68333 96.1 5.05 96.5 4.65C96.9 4.21667 97.5667 4 98.5 4H103.15C104.117 4 104.8 4.21667 105.2 4.65C105.6 5.05 105.8 5.68333 105.8 6.55V14.65C106.4 14.25 107.25 13.9167 108.35 13.65C109.45 13.3833 110.517 13.25 111.55 13.25C115.517 13.25 118.533 14.2833 120.6 16.35C122.7 18.4167 123.75 21.3167 123.75 25.05C123.75 29.3833 122.483 32.75 119.95 35.15C117.417 37.55 113.733 38.75 108.9 38.75ZM108.4 31.95C111.9 31.95 113.65 29.6667 113.65 25.1C113.65 23.3667 113.333 22.1 112.7 21.3C112.1 20.4667 111.083 20.05 109.65 20.05C108.55 20.05 107.617 20.35 106.85 20.95C106.117 21.55 105.75 22.4 105.75 23.5V31.4C106.417 31.7667 107.3 31.95 108.4 31.95ZM129.652 38C128.686 38 128.002 37.8 127.602 37.4C127.236 37 127.052 36.3667 127.052 35.5V6.55C127.052 5.68333 127.252 5.05 127.652 4.65C128.052 4.21667 128.719 4 129.652 4H134.502C135.469 4 136.152 4.21667 136.552 4.65C136.952 5.05 137.152 5.68333 137.152 6.55V35.5C137.152 36.3667 136.952 37 136.552 37.4C136.152 37.8 135.469 38 134.502 38H129.652ZM154.907 38.75C150.34 38.75 146.79 37.6167 144.257 35.35C141.723 33.05 140.457 29.9333 140.457 26C140.457 22.0667 141.723 18.9667 144.257 16.7C146.79 14.4 150.34 13.25 154.907 13.25C159.473 13.25 163.023 14.4 165.557 16.7C168.123 18.9667 169.407 22.0667 169.407 26C169.407 29.9333 168.123 33.05 165.557 35.35C163.023 37.6167 159.473 38.75 154.907 38.75ZM154.907 31.6C157.84 31.6 159.307 29.7333 159.307 26C159.307 22.3333 157.84 20.5 154.907 20.5C151.973 20.5 150.507 22.3333 150.507 26C150.507 27.8667 150.89 29.2667 151.657 30.2C152.423 31.1333 153.507 31.6 154.907 31.6ZM185.857 46.5C183.857 46.5 181.807 46.2667 179.707 45.8C177.64 45.3667 176.107 44.8 175.107 44.1C174.873 43.9 174.757 43.6833 174.757 43.45C174.757 43.2833 174.807 43.1167 174.907 42.95L177.057 39C177.157 38.8333 177.257 38.6833 177.357 38.55C177.49 38.45 177.623 38.4 177.757 38.4C177.823 38.4 178.023 38.4667 178.357 38.6C179.923 39.4 182.09 39.8 184.857 39.8C186.423 39.8 187.607 39.4667 188.407 38.8C189.207 38.1333 189.607 37.05 189.607 35.55C188.94 36.0167 188.107 36.4 187.107 36.7C186.107 36.9667 185.04 37.1 183.907 37.1C179.94 37.1 176.907 36.1167 174.807 34.15C172.74 32.1833 171.707 29.3333 171.707 25.6C171.707 21.5333 172.973 18.4667 175.507 16.4C178.04 14.3 181.79 13.25 186.757 13.25C189.257 13.25 191.64 13.6 193.907 14.3C196.173 15 198.057 15.8833 199.557 16.95V32.9C199.557 36.9667 198.39 40.25 196.057 42.75C193.723 45.25 190.323 46.5 185.857 46.5ZM186.107 30.05C188.507 30.05 189.707 28.9 189.707 26.6V20.55C189.007 20.25 187.84 20.1 186.207 20.1C184.74 20.1 183.623 20.4667 182.857 21.2C182.123 21.9333 181.757 23.25 181.757 25.15C181.757 26.85 182.107 28.1 182.807 28.9C183.507 29.6667 184.607 30.05 186.107 30.05Z" fill="white"/>
</svg>
